<svg width="2048px" height="2048px" viewBox="0 0 2048 2048" xmlns="http://www.w3.org/2000/svg" xmlns:xlink="http://www.w3.org/1999/xlink"><path transform="translate(0,2048) scale(1,-1)" d= "M1504 1920Q1617 1920 1716 1877Q1815 1834 1889 1760.5Q1963 1687 2005.5 1587.5Q2048 1488 2048 1376Q2048 1267 2006.5 1167Q1965 1067 1889 991L1024 127L159 991Q83 1067 41.5 1167Q0 1267 0 1376Q0 1488 42.5 1587.5Q85 1687 159 1760.5Q233 1834 332 1877Q431 1920 544 1920Q627 1920 692 1901Q757 1882 812.5 1848.5Q868 1815 918.5 1768Q969 1721 1024 1665Q1079 1721 1129.5 1768Q1180 1815 1235.5 1848.5Q1291 1882 1356 1901Q1421 1920 1504 1920ZM1024 308L1798 1082Q1857 1141 1888 1217Q1919 1293 1919 1376Q1919 1463 1887 1538.5Q1855 1614 1798.5 1669.5Q1742 1725 1666.5 1756.5Q1591 1788 1504 1788Q1420 1788 1355 1761.5Q1290 1735 1235 1692Q1180 1649 1129.5 1594.5Q1079 1540 1024 1484Q970 1538 919 1593Q868 1648 812.5 1692Q757 1736 691.5 1764Q626 1792 544 1792Q458 1792 382 1759.5Q306 1727 249.5 1670.5Q193 1614 160.5 1538Q128 1462 128 1376Q128 1293 159.5 1217Q191 1141 250 1082L1024 308Z"></path></svg>