<svg width="21" height="32" viewBox="0 0 21 32" fill="none" xmlns="http://www.w3.org/2000/svg">
<path d="M0.25293 0L20.1334 0.046875C19.9251 0.463542 19.7636 0.911458 19.649 1.39063C19.5449 1.85938 19.4667 2.29688 19.4146 2.70313C19.3626 3.10938 19.3313 3.45313 19.3209 3.73438C19.3105 4.01563 19.3053 4.17708 19.3053 4.21875L18.7584 4.3125C18.6126 3.61458 18.3469 3.04688 17.9615 2.60938C17.5761 2.17188 17.123 1.83333 16.6021 1.59375C16.0813 1.34375 15.524 1.17708 14.9303 1.09375C14.3365 1 13.7584 0.953125 13.1959 0.953125H8.03964V12.3438H18.1178C17.899 12.7813 17.7324 13.2396 17.6178 13.7188C17.5032 14.1979 17.4199 14.6458 17.3678 15.0625C17.3053 15.5521 17.2688 16.0313 17.2584 16.5L16.7428 16.5938C16.6282 16.0313 16.4928 15.5625 16.3365 15.1875C16.1803 14.8021 15.9667 14.4844 15.6959 14.2344C15.4355 13.9844 15.1021 13.7917 14.6959 13.6563C14.3001 13.5208 13.8001 13.4219 13.1959 13.3594C12.5917 13.2969 11.8678 13.2604 11.024 13.25C10.1803 13.2396 9.18548 13.2344 8.03964 13.2344V24.2188C8.03964 24.4479 7.9511 24.7031 7.77402 24.9844C7.59694 25.276 7.36777 25.5938 7.08652 25.9375C6.80527 26.2813 6.48235 26.6458 6.11777 27.0313C5.7636 27.4271 5.40423 27.8385 5.03964 28.2656C4.67506 28.7031 4.32089 29.1563 3.97714 29.625C3.63339 30.1042 3.25293 30.5469 3.00293 31.0469V2.625C3.00293 2.41667 2.96126 2.19271 2.87793 1.95313C2.80501 1.71354 2.66439 1.49479 2.45605 1.29688C2.25814 1.08854 1.9821 0.916667 1.62793 0.78125C1.27376 0.645833 0.81543 0.578125 0.25293 0.578125V0Z" fill="black"/>
</svg>
