<svg width="179" height="36" viewBox="0 0 179 36" fill="none" xmlns="http://www.w3.org/2000/svg">
<path d="M32.7736 30.54C30.6376 30.54 28.9936 30.084 27.8416 29.172C26.6896 28.26 26.1136 27.096 26.1136 25.68C26.1136 24.744 26.3176 23.82 26.7256 22.908C26.8936 22.476 27.1096 22.08 27.3736 21.72C28.3576 21.48 29.4256 21.264 30.5776 21.072C33.1696 20.64 35.4616 20.376 37.4536 20.28V19.2C37.4536 16.536 37.1296 14.7 36.4816 13.692C35.8336 12.684 34.8376 12.18 33.4936 12.18C32.9896 12.18 32.5576 12.24 32.1976 12.36L31.6936 12.54V17.94L31.2256 18.048C30.8416 18.096 30.5176 18.12 30.2536 18.12C29.4376 18.12 28.7776 17.88 28.2736 17.4C27.7936 16.896 27.5536 16.236 27.5536 15.42C27.5536 14.316 28.1056 13.38 29.2096 12.612C30.3376 11.844 32.0056 11.46 34.2136 11.46C36.0856 11.46 37.6936 11.796 39.0376 12.468C40.4056 13.116 41.4376 14.028 42.1336 15.204C42.8536 16.356 43.2136 17.688 43.2136 19.2V28.92L45.3736 29.46V30H42.1336C40.6936 30 39.5776 29.556 38.7856 28.668C38.4496 28.308 38.1856 27.852 37.9936 27.3C37.6576 27.9 37.2616 28.44 36.8056 28.92C35.7256 30 34.3816 30.54 32.7736 30.54ZM34.2136 29.28C35.1016 29.28 35.9056 28.8 36.6256 27.84C36.8896 27.48 37.1656 27 37.4536 26.4V21.18C36.3496 21.18 35.2936 21.24 34.2856 21.36C33.5416 21.456 33.0376 21.516 32.7736 21.54C32.6536 21.804 32.5336 22.164 32.4136 22.62C32.1736 23.532 32.0536 24.432 32.0536 25.32C32.0536 26.664 32.2576 27.66 32.6656 28.308C33.0736 28.956 33.5896 29.28 34.2136 29.28Z" fill="black"/>
<path d="M59.9705 30.54C58.3625 30.54 57.0185 30 55.9385 28.92C55.4825 28.44 55.0865 27.9 54.7505 27.3C54.5825 27.828 54.2945 28.308 53.8865 28.74C52.9745 29.7 51.6425 30.18 49.8905 30.18H49.5305V5.88L47.3705 5.34V4.8H52.0505C54.2105 4.8 55.2905 5.88 55.2905 8.04V12.9C55.6745 12.588 56.0465 12.348 56.4065 12.18C57.2705 11.7 58.2785 11.46 59.4305 11.46C61.8545 11.46 63.7745 12.288 65.1905 13.944C66.6305 15.576 67.3505 17.928 67.3505 21C67.3505 23.04 67.0265 24.78 66.3785 26.22C65.7305 27.636 64.8545 28.716 63.7505 29.46C62.6465 30.18 61.3865 30.54 59.9705 30.54ZM58.5305 29.28C59.2985 29.28 59.9345 28.68 60.4385 27.48C60.9665 26.256 61.2305 24.096 61.2305 21C61.2305 17.76 60.9425 15.54 60.3665 14.34C59.8145 13.14 59.0225 12.54 57.9905 12.54C57.3665 12.54 56.7305 12.78 56.0825 13.26C55.8905 13.404 55.6265 13.644 55.2905 13.98V26.4C55.5065 26.952 55.7705 27.432 56.0825 27.84C56.8025 28.8 57.6185 29.28 58.5305 29.28Z" fill="black"/>
<path d="M70.7789 29.46L72.9389 28.92V13.08L70.7789 12.54V12H74.0189C75.4349 12 76.5509 12.456 77.3669 13.368C77.6789 13.728 77.9429 14.172 78.1589 14.7C78.5189 14.172 78.9629 13.692 79.4909 13.26C80.6909 12.3 82.0349 11.82 83.5229 11.82C84.7949 11.82 85.7429 12.12 86.3669 12.72C87.0149 13.296 87.3389 14.136 87.3389 15.24C87.3389 16.056 87.0869 16.716 86.5829 17.22C86.1029 17.7 85.4549 17.94 84.6389 17.94C84.3029 17.94 83.9669 17.916 83.6309 17.868L83.1989 17.76V12.72C81.9749 12.72 80.8589 13.2 79.8509 14.16C79.3709 14.64 78.9869 15.12 78.6989 15.6V28.92L80.8589 29.46V30H70.7789V29.46Z" fill="black"/>
<path d="M89.4947 29.46L91.6547 28.92V13.08L89.4947 12.54V12H94.1747C96.3347 12 97.4147 13.08 97.4147 15.24V28.92L99.5747 29.46V30H89.4947V29.46ZM94.1747 9.84C93.4547 9.84 92.8547 9.6 92.3747 9.12C91.8947 8.64 91.6547 8.04 91.6547 7.32C91.6547 6.6 91.8947 6 92.3747 5.52C92.8547 5.04 93.4547 4.8 94.1747 4.8C94.8947 4.8 95.4947 5.04 95.9747 5.52C96.4547 6 96.6947 6.6 96.6947 7.32C96.6947 8.04 96.4547 8.64 95.9747 9.12C95.4947 9.6 94.8947 9.84 94.1747 9.84Z" fill="black"/>
<path d="M102.269 29.46L104.429 28.92V5.88L102.269 5.34V4.8H106.949C109.109 4.8 110.189 5.88 110.189 8.04V20.64L116.849 13.62L114.149 12.54V12H120.989V12.54L118.109 13.62L113.969 17.94L120.989 28.92L122.789 29.46V30H118.109C116.957 30 116.021 29.748 115.301 29.244C114.581 28.74 113.897 27.972 113.249 26.94L110.189 22.08V28.92L112.349 29.46V30H102.269V29.46Z" fill="black"/>
<path d="M131.063 30.54C128.927 30.54 127.283 30.084 126.131 29.172C124.979 28.26 124.403 27.096 124.403 25.68C124.403 24.744 124.607 23.82 125.015 22.908C125.183 22.476 125.399 22.08 125.663 21.72C126.647 21.48 127.715 21.264 128.867 21.072C131.459 20.64 133.751 20.376 135.743 20.28V19.2C135.743 16.536 135.419 14.7 134.771 13.692C134.123 12.684 133.127 12.18 131.783 12.18C131.279 12.18 130.847 12.24 130.487 12.36L129.983 12.54V17.94L129.515 18.048C129.131 18.096 128.807 18.12 128.543 18.12C127.727 18.12 127.067 17.88 126.563 17.4C126.083 16.896 125.843 16.236 125.843 15.42C125.843 14.316 126.395 13.38 127.499 12.612C128.627 11.844 130.295 11.46 132.503 11.46C134.375 11.46 135.983 11.796 137.327 12.468C138.695 13.116 139.727 14.028 140.423 15.204C141.143 16.356 141.503 17.688 141.503 19.2V28.92L143.663 29.46V30H140.423C138.983 30 137.867 29.556 137.075 28.668C136.739 28.308 136.475 27.852 136.283 27.3C135.947 27.9 135.551 28.44 135.095 28.92C134.015 30 132.671 30.54 131.063 30.54ZM132.503 29.28C133.391 29.28 134.195 28.8 134.915 27.84C135.179 27.48 135.455 27 135.743 26.4V21.18C134.639 21.18 133.583 21.24 132.575 21.36C131.831 21.456 131.327 21.516 131.063 21.54C130.943 21.804 130.823 22.164 130.703 22.62C130.463 23.532 130.343 24.432 130.343 25.32C130.343 26.664 130.547 27.66 130.955 28.308C131.363 28.956 131.879 29.28 132.503 29.28Z" fill="black"/>
<path d="M146.38 29.46L148.54 28.92V13.08L146.38 12.54V12H149.62C151.036 12 152.152 12.456 152.968 13.368C153.28 13.728 153.544 14.172 153.76 14.7C154.12 14.028 154.504 13.488 154.912 13.08C155.992 12 157.228 11.46 158.62 11.46C160.012 11.46 161.236 11.772 162.292 12.396C163.348 12.996 164.164 13.824 164.74 14.88C165.1 14.184 165.484 13.62 165.892 13.188C166.996 12.036 168.232 11.46 169.6 11.46C170.872 11.46 172.012 11.724 173.02 12.252C174.052 12.78 174.844 13.5 175.396 14.412C175.972 15.324 176.26 16.32 176.26 17.4V28.92L178.42 29.46V30H173.74C171.58 30 170.5 28.92 170.5 26.76V17.4C170.5 15.84 170.26 14.676 169.78 13.908C169.3 13.116 168.76 12.72 168.16 12.72C167.464 12.72 166.756 13.2 166.036 14.16C165.748 14.616 165.496 15.096 165.28 15.6V28.92L167.44 29.46V30H157.36V29.46L159.52 28.92V17.4C159.52 15.84 159.28 14.676 158.8 13.908C158.32 13.116 157.78 12.72 157.18 12.72C156.484 12.72 155.776 13.2 155.056 14.16C154.768 14.616 154.516 15.096 154.3 15.6V28.92L156.46 29.46V30H146.38V29.46Z" fill="black"/>
<path d="M0.402344 0.792969H22.6738C22.4395 1.26172 22.2578 1.76562 22.1289 2.30469C22.0117 2.83203 21.9238 3.32422 21.8652 3.78125C21.8066 4.23828 21.7715 4.625 21.7598 4.94141C21.748 5.25781 21.7422 5.43945 21.7422 5.48633L21.127 5.5918C20.9629 4.80664 20.6641 4.16797 20.2305 3.67578C19.7969 3.18359 19.2871 2.80273 18.7012 2.5332C18.1152 2.25195 17.4883 2.06445 16.8203 1.9707C16.1523 1.86523 15.502 1.8125 14.8691 1.8125H9.06836V14.627H20.4062C20.1602 15.1191 19.9727 15.6348 19.8438 16.1738C19.7148 16.7129 19.6211 17.2168 19.5625 17.6855C19.4922 18.2363 19.4512 18.7754 19.4395 19.3027L18.8594 19.4082C18.7305 18.7754 18.5781 18.248 18.4023 17.8262C18.2266 17.3926 17.9863 17.0352 17.6816 16.7539C17.3887 16.4727 17.0137 16.2559 16.5566 16.1035C16.1113 15.9512 15.5488 15.8398 14.8691 15.7695C14.1895 15.6992 13.375 15.6582 12.4258 15.6465C11.4766 15.6348 10.3574 15.6289 9.06836 15.6289V27.9863C9.06836 28.2441 8.96875 28.5312 8.76953 28.8477C8.57031 29.1758 8.3125 29.5332 7.99609 29.9199C7.67969 30.3066 7.31641 30.7168 6.90625 31.1504C6.50781 31.5957 6.10352 32.0586 5.69336 32.5391C5.2832 33.0312 4.88477 33.541 4.49805 34.0684C4.11133 34.6074 3.77734 35.1582 3.49609 35.7207V3.74609C3.49609 3.51172 3.44922 3.25977 3.35547 2.99023C3.27344 2.7207 3.11523 2.47461 2.88086 2.25195C2.6582 2.01758 2.34766 1.82422 1.94922 1.67188C1.55078 1.51953 1.03516 1.44336 0.402344 1.44336V0.792969Z" fill="black"/>
</svg>
