<svg width="2048px" height="2048px" viewBox="0 0 2048 2048" xmlns="http://www.w3.org/2000/svg" xmlns:xlink="http://www.w3.org/1999/xlink"><path transform="translate(0,2048) scale(1,-1)" d= "M1344 2048Q1441 2048 1531 2023Q1621 1998 1699 1952Q1777 1906 1841.5 1841.5Q1906 1777 1952 1699Q1998 1621 2023 1531Q2048 1441 2048 1344Q2048 1247 2023 1157Q1998 1067 1952 989Q1906 911 1841.5 846.5Q1777 782 1699 736Q1621 690 1531 665Q1441 640 1344 640Q1219 640 1104.5 682Q990 724 894 803L109 19Q90 0 64 0Q38 0 19 19Q0 38 0 64Q0 90 19 109L803 894Q724 990 682 1104.5Q640 1219 640 1344Q640 1441 665 1531Q690 1621 736 1699Q782 1777 846.5 1841.5Q911 1906 989 1952Q1067 1998 1157 2023Q1247 2048 1344 2048ZM1344 768Q1463 768 1568 813.5Q1673 859 1751 937Q1829 1015 1874.5 1120Q1920 1225 1920 1344Q1920 1463 1874.5 1568Q1829 1673 1751 1751Q1673 1829 1568 1874.5Q1463 1920 1344 1920Q1225 1920 1120 1874.5Q1015 1829 937 1751Q859 1673 813.5 1568Q768 1463 768 1344Q768 1225 813.5 1120Q859 1015 937 937Q1015 859 1120 813.5Q1225 768 1344 768Z"></path></svg>