<svg width="2048px" height="2048px" viewBox="0 0 2048 2048" xmlns="http://www.w3.org/2000/svg" xmlns:xlink="http://www.w3.org/1999/xlink"><path transform="translate(0,2048) scale(1,-1)" d= "M1536 1536L1792 1536L1792 256Q1792 203 1771.5 156.5Q1751 110 1716.5 75.5Q1682 41 1635 20.5Q1588 0 1536 0L384 0Q331 0 284.5 20.5Q238 41 203.5 75.5Q169 110 148.5 156.5Q128 203 128 256L128 1536L384 1536L384 1664Q384 1743 414.5 1813Q445 1883 497 1935Q549 1987 619 2017.5Q689 2048 768 2048Q872 2048 961 1996Q1050 2048 1152 2048Q1231 2048 1301 2017.5Q1371 1987 1423 1935Q1475 1883 1505.5 1813Q1536 1743 1536 1664L1536 1536ZM1408 1536L1408 1664Q1408 1716 1387.5 1763Q1367 1810 1332.5 1844.5Q1298 1879 1251 1899.5Q1204 1920 1152 1920Q1107 1920 1067 1905Q1096 1869 1113 1834Q1130 1799 1138.5 1764Q1147 1729 1149.5 1692.5Q1152 1656 1152 1616L1152 1536L1408 1536ZM512 1664L512 1536L1024 1536L1024 1664Q1024 1716 1003.5 1763Q983 1810 948.5 1844.5Q914 1879 867 1899.5Q820 1920 768 1920Q715 1920 668.5 1899.5Q622 1879 587.5 1844.5Q553 1810 532.5 1763Q512 1716 512 1664ZM384 128L1314 128Q1280 188 1280 256L1280 1408L256 1408L256 256Q256 229 266 206Q276 183 293.5 165.5Q311 148 334 138Q357 128 384 128ZM1664 256L1664 1408L1408 1408L1408 256Q1408 229 1418 206Q1428 183 1445.5 165.5Q1463 148 1486 138Q1509 128 1536 128Q1563 128 1586 138Q1609 148 1626.5 165.5Q1644 183 1654 206Q1664 229 1664 256Z"></path></svg>